#Comment line ignore any data following # character 
#Hierarchical Translation and Rotation (.htr) file 
[Header]	
#Header keywords are followed by a single value 
FileType HTR		#Single word string
DataType HTRS		#Translation followed by rotation and scale data
FileVersion 1		#integer
NumSegments 64		#integer
NumFrames 3		#integer
DataFrameRate 30		#integer, data frame rate in this file
EulerRotationOrder ZYX
CalibrationUnits mm
RotationUnits Degrees
GlobalAxisofGravity Y
BoneLengthAxis Y
ScaleFactor 1.00
[SegmentNames&Hierarchy]
#CHILD	PARENT
Pinger_Root GLOBAL
Pelvis Pinger_Root
L_Hip Pelvis
R_Hip Pelvis
Rear_Leg01 Pelvis
Spine1 Pelvis
L_Leg01 L_Hip
L_Leg02 L_Leg01
L_Leg03 L_Leg02
L_Foot L_Leg03
L_Toe1_01 L_Foot
L_Toe2_01 L_Foot
L_Toe3_01 L_Foot
planeAlignerLeft L_Foot
L_Toe1_02 L_Toe1_01
L_Toe1_03 L_Toe1_02
L_Toe2_02 L_Toe2_01
L_Toe2_03 L_Toe2_02
L_Toe3_02 L_Toe3_01
L_Toe3_03 L_Toe3_02
planeLockWeightLeft planeAlignerLeft
R_Leg01 R_Hip
R_Leg02 R_Leg01
R_Leg03 R_Leg02
R_Foot R_Leg03
planeAlignerRight R_Foot
R_Toe1_01 R_Foot
R_Toe2_01 R_Foot
R_Toe3_01 R_Foot
planeLockWeightRight planeAlignerRight
R_Toe1_02 R_Toe1_01
R_Toe1_03 R_Toe1_02
R_Toe2_02 R_Toe2_01
R_Toe2_03 R_Toe2_02
R_Toe3_02 R_Toe3_01
R_Toe3_03 R_Toe3_02
Rear_Leg02 Rear_Leg01
Rear_Leg03 Rear_Leg02
Rear_Leg04 Rear_Leg03
Rear_Foot Rear_Leg04
planeAlignerCenter Rear_Foot
Rear_Toe1_01 Rear_Foot
Rear_Toe2_01 Rear_Foot
Rear_Toe3_01 Rear_Foot
planeLockWeightCenter planeAlignerCenter
Rear_Toe1_02 Rear_Toe1_01
Rear_Toe1_03 Rear_Toe1_02
Rear_Toe2_02 Rear_Toe2_01
Rear_Toe2_03 Rear_Toe2_02
Rear_Toe3_02 Rear_Toe3_01
Rear_Toe3_03 Rear_Toe3_02
Back_Bone Spine1
Head Spine1
Motor_Bone Back_Bone
Ping_Mechanism Back_Bone
BN_LookIK Head
bottomMouth Head
L_Mouth01 Head
L_mouthFront Head
mouthGun Head
R_Mouth01 Head
R_mouthFront Head
TopMouth Head
weapon_bone Head
[BasePosition]
#SegmentName Tx, Ty, Tz, Rx, Ry, Rz, BoneLength
Pinger_Root 0.000000 0.000000 0.000000 -90.000000 0.000000 0.000000 10.000000 
Pelvis 0.000000 0.000000 0.000000 0.000000 0.000000 0.000000 10.000000 
L_Hip 0.000000 0.000000 0.000000 0.000000 0.000000 0.000000 10.000000 
R_Hip 0.000000 0.000000 0.000000 0.000000 0.000000 0.000000 10.000000 
Rear_Leg01 0.000000 0.000000 0.000000 0.000000 0.000000 0.000000 10.000000 
Spine1 0.000000 0.000000 0.000000 0.000000 0.000000 0.000000 10.000000 
L_Leg01 0.000000 0.000000 0.000000 0.000000 0.000000 0.000000 10.000000 
L_Leg02 0.000000 0.000000 0.000000 0.000000 0.000000 0.000000 10.000000 
L_Leg03 0.000000 0.000000 0.000000 0.000000 0.000000 0.000000 10.000000 
L_Foot 0.000000 0.000000 0.000000 0.000000 0.000000 0.000000 10.000000 
L_Toe1_01 0.000000 0.000000 0.000000 0.000000 0.000000 0.000000 10.000000 
L_Toe2_01 0.000000 0.000000 0.000000 0.000000 0.000000 0.000000 10.000000 
L_Toe3_01 0.000000 0.000000 0.000000 0.000000 0.000000 0.000000 10.000000 
planeAlignerLeft 0.000000 0.000000 0.000000 0.000000 0.000000 0.000000 10.000000 
L_Toe1_02 0.000000 0.000000 0.000000 0.000000 0.000000 0.000000 10.000000 
L_Toe1_03 0.000000 0.000000 0.000000 0.000000 0.000000 0.000000 10.000000 
L_Toe2_02 0.000000 0.000000 0.000000 0.000000 0.000000 0.000000 10.000000 
L_Toe2_03 0.000000 0.000000 0.000000 0.000000 0.000000 0.000000 10.000000 
L_Toe3_02 0.000000 0.000000 0.000000 0.000000 0.000000 0.000000 10.000000 
L_Toe3_03 0.000000 0.000000 0.000000 0.000000 0.000000 0.000000 10.000000 
planeLockWeightLeft 0.000000 0.000000 0.000000 0.000000 0.000000 0.000000 10.000000 
R_Leg01 0.000000 0.000000 0.000000 0.000000 0.000000 0.000000 10.000000 
R_Leg02 0.000000 0.000000 0.000000 0.000000 0.000000 0.000000 10.000000 
R_Leg03 0.000000 0.000000 0.000000 0.000000 0.000000 0.000000 10.000000 
R_Foot 0.000000 0.000000 0.000000 0.000000 0.000000 0.000000 10.000000 
planeAlignerRight 0.000000 0.000000 0.000000 0.000000 0.000000 0.000000 10.000000 
R_Toe1_01 0.000000 0.000000 0.000000 0.000000 0.000000 0.000000 10.000000 
R_Toe2_01 0.000000 0.000000 0.000000 0.000000 0.000000 0.000000 10.000000 
R_Toe3_01 0.000000 0.000000 0.000000 0.000000 0.000000 0.000000 10.000000 
planeLockWeightRight 0.000000 0.000000 0.000000 0.000000 0.000000 0.000000 10.000000 
R_Toe1_02 0.000000 0.000000 0.000000 0.000000 0.000000 0.000000 10.000000 
R_Toe1_03 0.000000 0.000000 0.000000 0.000000 0.000000 0.000000 10.000000 
R_Toe2_02 0.000000 0.000000 0.000000 0.000000 0.000000 0.000000 10.000000 
R_Toe2_03 0.000000 0.000000 0.000000 0.000000 0.000000 0.000000 10.000000 
R_Toe3_02 0.000000 0.000000 0.000000 0.000000 0.000000 0.000000 10.000000 
R_Toe3_03 0.000000 0.000000 0.000000 0.000000 0.000000 0.000000 10.000000 
Rear_Leg02 0.000000 0.000000 0.000000 0.000000 0.000000 0.000000 10.000000 
Rear_Leg03 0.000000 0.000000 0.000000 0.000000 0.000000 0.000000 10.000000 
Rear_Leg04 0.000000 0.000000 0.000000 0.000000 0.000000 0.000000 10.000000 
Rear_Foot 0.000000 0.000000 0.000000 0.000000 0.000000 0.000000 10.000000 
planeAlignerCenter 0.000000 0.000000 0.000000 0.000000 0.000000 0.000000 10.000000 
Rear_Toe1_01 0.000000 0.000000 0.000000 0.000000 0.000000 0.000000 10.000000 
Rear_Toe2_01 0.000000 0.000000 0.000000 0.000000 0.000000 0.000000 10.000000 
Rear_Toe3_01 0.000000 0.000000 0.000000 0.000000 0.000000 0.000000 10.000000 
planeLockWeightCenter 0.000000 0.000000 0.000000 0.000000 0.000000 0.000000 10.000000 
Rear_Toe1_02 0.000000 0.000000 0.000000 0.000000 0.000000 0.000000 10.000000 
Rear_Toe1_03 0.000000 0.000000 0.000000 0.000000 0.000000 0.000000 10.000000 
Rear_Toe2_02 0.000000 0.000000 0.000000 0.000000 0.000000 0.000000 10.000000 
Rear_Toe2_03 0.000000 0.000000 0.000000 0.000000 0.000000 0.000000 10.000000 
Rear_Toe3_02 0.000000 0.000000 0.000000 0.000000 0.000000 0.000000 10.000000 
Rear_Toe3_03 0.000000 0.000000 0.000000 0.000000 0.000000 0.000000 10.000000 
Back_Bone 0.000000 0.000000 0.000000 0.000000 0.000000 0.000000 10.000000 
Head 0.000000 0.000000 0.000000 0.000000 0.000000 0.000000 10.000000 
Motor_Bone 0.000000 0.000000 0.000000 0.000000 0.000000 0.000000 10.000000 
Ping_Mechanism 0.000000 0.000000 0.000000 0.000000 0.000000 0.000000 10.000000 
BN_LookIK 0.000000 0.000000 0.000000 0.000000 0.000000 0.000000 10.000000 
bottomMouth 0.000000 0.000000 0.000000 0.000000 0.000000 0.000000 10.000000 
L_Mouth01 0.000000 0.000000 0.000000 0.000000 0.000000 0.000000 10.000000 
L_mouthFront 0.000000 0.000000 0.000000 0.000000 0.000000 0.000000 10.000000 
mouthGun 0.000000 0.000000 0.000000 0.000000 0.000000 0.000000 10.000000 
R_Mouth01 0.000000 0.000000 0.000000 0.000000 0.000000 0.000000 10.000000 
R_mouthFront 0.000000 0.000000 0.000000 0.000000 0.000000 0.000000 10.000000 
TopMouth 0.000000 0.000000 0.000000 0.000000 0.000000 0.000000 10.000000 
weapon_bone 0.000000 0.000000 0.000000 0.000000 0.000000 0.000000 10.000000 
#Beginning of Data. Separated by tabs
#Fr	Tx	Ty	Tz	Rx	Ry	Rz	SF
[Pinger_Root]
41 0.000000 0.000000 0.000000 -0.000075 -0.000000 -0.000020 0.000000
42 0.000000 0.000000 0.000000 -0.000075 -0.000000 -0.000020 0.000000
43 0.000000 0.000000 0.000000 -0.000075 -0.000000 -0.000020 0.000000
[Pelvis]
41 -1737.462646 1590.246704 3536.909180 -95.171684 -75.441872 85.871025 4249.398438
42 -1742.367432 1588.125854 3544.481689 -95.089378 -75.115997 85.680962 4256.916504
43 -1746.232544 1586.217651 3549.539795 -95.048958 -74.890182 85.786720 4262.000000
[L_Hip]
41 5.766392 125.831482 872.656799 160.158691 -45.484913 122.312202 881.701050
42 5.766392 125.831482 872.656799 160.158691 -45.484894 122.312202 881.701050
43 5.766392 125.831482 872.656799 160.158691 -45.484894 122.312202 881.701050
[R_Hip]
41 5.765438 125.836372 -872.654907 38.087841 49.812687 125.703735 881.699829
42 5.765438 125.836372 -872.654907 38.087830 49.812672 125.703735 881.699829
43 5.765438 125.836372 -872.654907 38.087830 49.812672 125.703735 881.699829
[Rear_Leg01]
41 -192.298416 -925.602966 -0.001907 154.001144 7.408092 -155.374573 945.367432
42 -192.298416 -925.602966 -0.001907 153.956375 7.533320 -155.870071 945.367432
43 -192.298416 -925.602966 -0.001907 154.077652 7.432765 -156.159088 945.367432
[Spine1]
41 290.604584 5.007505 0.000477 39.363274 -32.105911 -16.591330 290.647736
42 290.604584 5.007505 0.000477 39.549061 -32.446285 -16.957279 290.647736
43 290.604584 5.007505 0.000477 39.384850 -33.066376 -16.852446 290.647736
[L_Leg01]
41 761.932007 -0.002384 -0.069261 37.686638 -9.387996 6.941474 761.932068
42 761.932007 -0.002384 -0.069261 37.367599 -9.529226 7.221658 761.932068
43 761.932007 -0.002384 -0.069261 37.047718 -9.668911 7.502752 761.932068
[L_Leg02]
41 1441.140503 -0.000954 -0.000715 7.988709 -0.054139 -177.509033 1441.140503
42 1441.140503 -0.000954 -0.000715 7.989923 -0.055141 -177.512817 1441.140503
43 1441.140503 -0.000954 -0.000715 7.991137 -0.056142 -177.516602 1441.140503
[L_Leg03]
41 1686.963989 -0.000715 -0.000954 -0.044335 0.022426 122.316437 1686.963989
42 1686.963989 -0.000715 -0.000954 -0.044457 0.022661 122.336349 1686.963989
43 1686.963989 -0.000715 -0.000954 -0.044578 0.022897 122.356270 1686.963989
[L_Foot]
41 3041.570068 -30.715107 11.297464 -38.460873 21.780970 73.162605 3041.746094
42 3041.570068 -30.715107 11.297464 -38.348927 21.764797 73.155617 3041.746094
43 3041.570068 -30.715107 11.297464 -38.237000 21.748644 73.148590 3041.746094
[L_Toe1_01]
41 -188.216690 -224.732346 -21.137953 89.330788 -2.396121 -161.427643 293.899567
42 -188.216690 -224.732346 -21.137953 89.330788 -2.396121 -161.427643 293.899567
43 -188.216690 -224.732346 -21.137953 89.330788 -2.396120 -161.427643 293.899567
[L_Toe2_01]
41 200.746536 -219.926590 148.838394 -78.791496 -10.652695 -43.374847 332.896027
42 200.746536 -219.926590 148.838394 -78.791496 -10.652695 -43.374847 332.896027
43 200.746536 -219.926590 148.838394 -78.791496 -10.652695 -43.374847 332.896027
[L_Toe3_01]
41 188.832520 -219.859131 -191.078659 -109.186691 26.104874 -48.222931 347.140900
42 188.832520 -219.859131 -191.078659 -109.186691 26.104877 -48.222935 347.140900
43 188.832520 -219.859131 -191.078659 -109.186691 26.104874 -48.222931 347.140900
[planeAlignerLeft]
41 0.812531 -811.448792 -0.314951 0.000000 -90.000000 -90.001900 811.449280
42 0.812531 -811.448792 -0.314951 0.000000 -90.000000 -90.001900 811.449280
43 0.812531 -811.448792 -0.314951 0.000000 -90.000000 -90.001900 811.449280
[L_Toe1_02]
41 413.761139 0.000477 0.000000 0.000203 -25.410625 -0.000182 413.761139
42 413.761139 0.000477 0.000000 0.000203 -25.410625 -0.000182 413.761139
43 413.761139 0.000477 0.000000 0.000203 -25.410625 -0.000182 413.761139
[L_Toe1_03]
41 464.317322 0.000358 -0.000089 0.004933 62.473137 0.004933 464.317322
42 464.317322 0.000358 -0.000089 0.004933 62.473118 0.004933 464.317322
43 464.317322 0.000358 -0.000089 0.004933 62.473133 0.004933 464.317322
[L_Toe2_02]
41 342.235809 -0.000477 0.000238 -0.000101 -70.104240 0.000129 342.235809
42 342.235809 -0.000477 0.000238 -0.000101 -70.104240 0.000129 342.235809
43 342.235809 -0.000477 0.000238 -0.000101 -70.104240 0.000129 342.235809
[L_Toe2_03]
41 420.210846 -0.000715 0.000000 0.016997 82.081551 0.016997 420.210846
42 420.210846 -0.000715 0.000000 0.016997 82.081551 0.016997 420.210846
43 420.210846 -0.000715 0.000000 0.016997 82.081551 0.016997 420.210846
[L_Toe3_02]
41 329.270111 0.000954 0.000000 0.001178 -80.668365 0.001178 329.270111
42 329.270111 0.000954 0.000000 0.001178 -80.668365 0.001178 329.270111
43 329.270111 0.000954 0.000000 0.001178 -80.668365 0.001178 329.270111
[L_Toe3_03]
41 439.137451 -0.001907 0.000954 -179.996323 77.872643 -179.992813 439.137451
42 439.137451 -0.001907 0.000954 -179.996323 77.872620 -179.992813 439.137451
43 439.137451 -0.001907 0.000954 -179.996323 77.872620 -179.992813 439.137451
[planeLockWeightLeft]
41 -0.000954 0.000238 -0.000305 -0.011826 -0.004376 0.005620 0.001029
42 -0.000954 0.000238 -0.000305 -0.011826 -0.004376 0.005620 0.001029
43 -0.000954 0.000238 -0.000305 -0.011826 -0.004376 0.005620 0.001029
[R_Leg01]
41 761.455627 -0.001907 -0.000358 114.329781 -27.129677 8.322244 761.455688
42 761.455627 -0.001907 -0.000358 114.533287 -27.082853 8.170746 761.455688
43 761.455627 -0.001907 -0.000358 114.736542 -27.035542 8.019500 761.455688
[R_Leg02]
41 1441.140625 0.000000 -0.000238 -2.810947 -1.101969 -163.207489 1441.140625
42 1441.140625 0.000000 -0.000238 -2.798199 -1.093400 -162.752533 1441.140625
43 1441.140625 0.000000 -0.000238 -2.785383 -1.084933 -162.297577 1441.140625
[R_Leg03]
41 1686.963989 0.000954 0.001431 0.110082 -0.067260 140.397217 1686.963989
42 1686.963989 0.000954 0.001431 0.110100 -0.067230 140.366150 1686.963989
43 1686.963989 0.000954 0.001431 0.110118 -0.067201 140.335083 1686.963989
[R_Foot]
41 3041.560059 -30.531288 -11.204481 40.283154 -21.720591 53.031952 3041.734131
42 3041.560059 -30.531288 -11.204481 40.298363 -21.711414 52.690334 3041.734131
43 3041.560059 -30.531288 -11.204481 40.357738 -21.719830 52.591240 3041.734131
[planeAlignerRight]
41 -0.635147 -812.270569 -0.364304 0.000000 -89.960434 -90.005180 812.270874
42 -0.635147 -812.270569 -0.364304 0.000000 -89.960434 -90.005180 812.270874
43 -0.635147 -812.270569 -0.364304 0.000000 -89.960434 -90.005180 812.270874
[R_Toe1_01]
41 -188.383347 -224.864899 21.052242 90.478722 3.231926 -161.378860 294.101532
42 -188.383347 -224.864899 21.052242 90.478722 3.231926 -161.378860 294.101532
43 -188.383347 -224.864899 21.052242 90.478722 3.231924 -161.378845 294.101532
[R_Toe2_01]
41 200.637817 -220.002121 -148.787384 -105.368958 18.813929 -49.808262 332.857574
42 200.637817 -220.002121 -148.787384 -105.368950 18.813921 -49.808262 332.857574
43 200.637817 -220.002121 -148.787384 -105.368950 18.813921 -49.808254 332.857574
[R_Toe3_01]
41 188.606735 -220.092957 191.126343 -76.041084 -6.322367 -46.892487 347.192566
42 188.606735 -220.092957 191.126343 -76.041069 -6.322364 -46.892479 347.192566
43 188.606735 -220.092957 191.126343 -76.041069 -6.322364 -46.892479 347.192566
[planeLockWeightRight]
41 -0.000477 0.000000 0.000000 -0.011823 -0.004379 -0.000027 0.000477
42 -0.000477 0.000000 0.000000 -0.011823 -0.004379 -0.000027 0.000477
43 -0.000477 0.000000 0.000000 -0.011823 -0.004379 -0.000027 0.000477
[R_Toe1_02]
41 413.762085 0.000477 -0.000119 0.001401 -23.743965 0.001401 413.762085
42 413.762085 0.000477 -0.000119 0.001401 -23.743963 0.001401 413.762085
43 413.762085 0.000477 -0.000119 0.001401 -23.743965 0.001401 413.762085
[R_Toe1_03]
41 464.317810 0.000000 0.001088 0.008919 74.877419 0.008919 464.317810
42 464.317810 0.000000 0.001088 0.008919 74.877388 0.008919 464.317810
43 464.317810 0.000000 0.001088 0.008919 74.877419 0.008919 464.317810
[R_Toe2_02]
41 342.234741 -0.000954 0.000238 0.001188 -72.308174 0.001188 342.234741
42 342.234741 -0.000954 0.000238 0.001188 -72.308121 0.001188 342.234741
43 342.234741 -0.000954 0.000238 0.001188 -72.308083 0.001188 342.234741
[R_Toe2_03]
41 420.210846 0.000715 -0.000268 0.028216 85.232231 0.028216 420.210846
42 420.210846 0.000715 -0.000268 0.028215 85.232147 0.028215 420.210846
43 420.210846 0.000715 -0.000268 0.028215 85.232109 0.028215 420.210846
[R_Toe3_02]
41 329.270355 -0.000477 -0.000954 0.001177 -80.843628 0.001177 329.270355
42 329.270355 -0.000477 -0.000954 0.001177 -80.843628 0.001177 329.270355
43 329.270355 -0.000477 -0.000954 0.001177 -80.843628 0.001177 329.270355
[R_Toe3_03]
41 439.137939 0.000238 0.001431 -179.996658 77.075699 -179.993134 439.137939
42 439.137939 0.000238 0.001431 -179.996658 77.075775 -179.993134 439.137939
43 439.137939 0.000238 0.001431 -179.996658 77.075813 -179.993134 439.137939
[Rear_Leg02]
41 1162.777710 -0.029802 0.005960 0.095448 0.016867 -103.167427 1162.777710
42 1162.777710 -0.029802 0.005960 0.096010 0.022480 -102.797577 1162.777710
43 1162.777710 -0.029802 0.005960 0.096034 0.022376 -102.674072 1162.777710
[Rear_Leg03]
41 607.192505 -0.013351 -0.073195 0.006608 -0.001647 56.203773 607.192505
42 607.192505 -0.013351 -0.073195 0.006610 -0.001639 56.061787 607.192505
43 607.192505 -0.013351 -0.073195 0.006612 -0.001631 55.919800 607.192505
[Rear_Leg04]
41 995.874512 -0.020504 -0.011921 -0.036408 -0.015636 43.516495 995.874573
42 995.874512 -0.020504 -0.011921 -0.036374 -0.015713 43.272877 995.874573
43 995.874512 -0.020504 -0.011921 -0.036340 -0.015790 43.029255 995.874573
[Rear_Foot]
41 3096.176270 -0.067472 -0.041425 -179.760971 80.247581 30.343508 3096.176270
42 3096.176270 -0.067472 -0.041425 -179.758835 80.420120 30.315573 3096.176270
43 3096.176270 -0.067472 -0.041425 -179.757446 80.462593 30.289677 3096.176270
[planeAlignerCenter]
41 0.350077 0.966311 -838.790894 0.000009 0.000003 -179.999985 838.791565
42 0.350077 0.966311 -838.790894 0.000009 0.000003 -179.999985 838.791565
43 0.350077 0.966311 -838.790894 0.000009 0.000003 -179.999985 838.791565
[Rear_Toe1_01]
41 0.653352 83.966492 -371.173737 0.291771 41.924500 90.410645 380.553192
42 0.653352 83.966492 -371.173737 0.291816 41.924465 90.410675 380.553192
43 0.653352 83.966492 -371.173737 0.291862 41.924438 90.410713 380.553192
[Rear_Toe2_01]
41 178.200760 -294.826019 -362.060547 -2.184539 34.544346 -64.362228 499.765686
42 178.200760 -294.826019 -362.060547 -2.184513 34.544319 -64.362236 499.765686
43 178.200760 -294.826019 -362.060547 -2.184483 34.544270 -64.362206 499.765686
[Rear_Toe3_01]
41 -153.359680 -308.780914 -362.060852 3.870836 33.514236 -112.318695 499.952881
42 -153.359680 -308.780914 -362.060852 3.870841 33.514248 -112.318695 499.952881
43 -153.359680 -308.780914 -362.060852 3.870836 33.514236 -112.318695 499.952881
[planeLockWeightCenter]
41 -0.000062 0.000238 0.000000 -0.011814 -0.004373 -0.000015 0.000246
42 -0.000062 0.000238 0.000000 -0.011814 -0.004373 -0.000015 0.000246
43 -0.000062 0.000238 0.000000 -0.011814 -0.004373 -0.000015 0.000246
[Rear_Toe1_02]
41 379.707825 0.194073 0.000477 -0.000242 -31.672779 0.006934 379.707855
42 379.707825 0.194073 0.000477 -0.000242 -31.672823 0.006934 379.707855
43 379.707825 0.194073 0.000477 -0.000242 -31.672865 0.006934 379.707855
[Rear_Toe1_03]
41 500.129700 0.165701 0.000119 -0.000106 51.873230 0.007293 500.129761
42 500.129700 0.165701 0.000119 -0.000106 51.873390 0.007293 500.129761
43 500.129700 0.165701 0.000119 -0.000106 51.873539 0.007293 500.129761
[Rear_Toe2_02]
41 340.494507 0.000238 -0.000954 0.001192 -69.854523 0.001192 340.494507
42 340.494507 0.000238 -0.000954 0.001192 -69.854523 0.001192 340.494507
43 340.494507 0.000238 -0.000954 0.001192 -69.854507 0.001192 340.494507
[Rear_Toe2_03]
41 433.103577 0.000000 0.000238 0.006694 69.804291 0.006694 433.103546
42 433.103577 0.000000 0.000238 0.006694 69.804291 0.006694 433.103546
43 433.103577 0.000000 0.000238 0.006694 69.804291 0.006694 433.103546
[Rear_Toe3_02]
41 340.494141 -0.000358 -0.000477 0.008285 -67.268745 -0.009458 340.494171
42 340.494141 -0.000358 -0.000477 0.008285 -67.268761 -0.009458 340.494171
43 340.494141 -0.000358 -0.000477 0.008285 -67.268761 -0.009458 340.494171
[Rear_Toe3_03]
41 433.103577 0.001431 -0.000238 -0.000971 65.948532 -0.004546 433.103546
42 433.103577 0.001431 -0.000238 -0.000971 65.948616 -0.004546 433.103546
43 433.103577 0.001431 -0.000238 -0.000971 65.948647 -0.004546 433.103546
[Back_Bone]
41 1312.175781 -701.934692 0.000954 0.000023 -0.000007 -85.606667 1488.125488
42 1312.175781 -701.934692 0.000954 0.000023 -0.000007 -85.606667 1488.125488
43 1312.175781 -701.934692 0.000954 0.000023 -0.000007 -85.606667 1488.125488
[Head]
41 1406.159424 809.709290 0.001431 -0.000652 -2.978769 16.933292 1622.625488
42 1406.159424 809.709290 0.001431 -0.000056 -2.513675 16.915895 1622.625488
43 1406.159424 809.709290 0.001431 0.000398 -2.048574 16.898508 1622.625488
[Motor_Bone]
41 1158.364380 -417.834747 0.000477 -5.537762 7.159109 -103.017433 1231.419434
42 1158.364380 -417.834747 0.000477 -5.281466 6.455432 -103.227539 1231.419434
43 1158.364380 -417.834747 0.000477 -5.325607 5.425385 -103.431725 1231.419434
[Ping_Mechanism]
41 1233.945068 -432.257874 7.955605 0.000103 -0.000053 82.120995 1307.490112
42 1233.946777 -432.108673 7.933284 0.000103 -0.000053 82.120995 1307.442383
43 1233.948730 -431.959473 7.910962 0.000103 -0.000053 82.120995 1307.394775
[BN_LookIK]
41 193.241119 1380.371704 -0.002861 0.000000 89.965736 -31.038179 1393.832153
42 193.241119 1380.371704 -0.002861 0.000000 89.965736 -31.038179 1393.832153
43 193.241119 1380.371704 -0.002861 0.000000 89.965736 -31.038179 1393.832153
[bottomMouth]
41 -435.092926 615.759399 -0.000954 -0.000022 0.000016 73.527184 753.966492
42 -435.092926 615.759399 -0.000954 -0.000022 0.000016 73.527184 753.966492
43 -435.092926 615.759399 -0.000954 -0.000022 0.000016 73.527184 753.966492
[L_Mouth01]
41 554.440979 7.658243 838.222046 150.204178 23.759130 109.605339 1005.027161
42 554.440979 7.658243 838.222046 150.204178 23.759130 109.605339 1005.027161
43 554.440979 7.658243 838.222046 150.204178 23.759130 109.605339 1005.027161
[L_mouthFront]
41 551.629089 934.514771 339.150421 0.000081 2.804060 79.119301 1136.941284
42 551.629089 934.514771 339.150421 0.000081 2.804060 79.119301 1136.941284
43 551.629089 934.514771 339.150421 0.000081 2.804060 79.119301 1136.941284
[mouthGun]
41 55.332661 1627.420898 0.000000 0.000023 0.000009 -11.038128 1628.361328
42 55.332661 1627.420898 0.000000 0.000023 0.000009 -11.038128 1628.361328
43 55.332661 1627.420898 0.000000 0.000023 0.000009 -11.038128 1628.361328
[R_Mouth01]
41 554.442383 7.659197 -838.223938 29.795891 -23.759109 109.605331 1005.029541
42 554.442383 7.659197 -838.223938 29.795891 -23.759109 109.605331 1005.029541
43 554.442383 7.659197 -838.223938 29.795891 -23.759109 109.605331 1005.029541
[R_mouthFront]
41 551.629089 934.514282 -339.151367 0.000029 -2.803930 79.119133 1136.941162
42 551.629089 934.514282 -339.151367 0.000029 -2.803930 79.119133 1136.941162
43 551.629089 934.514282 -339.151367 0.000029 -2.803930 79.119133 1136.941162
[TopMouth]
41 461.269867 -56.106091 -0.008583 -0.000059 -0.000268 92.025169 464.669525
42 461.269867 -56.106091 -0.008583 -0.000059 -0.000268 92.025169 464.669525
43 461.269867 -56.106091 -0.008583 -0.000059 -0.000268 92.025169 464.669525
[weapon_bone]
41 -987.239868 1448.372803 0.001431 0.000000 89.965736 -31.038221 1752.833740
42 -987.239868 1448.372803 0.001431 0.000000 89.965736 -31.038221 1752.833740
43 -987.239868 1448.372803 0.001431 0.000000 89.965736 -31.038221 1752.833740
